<?xml version="1.0" encoding="UTF-8"?>
<svg width="143px" height="154px" viewBox="0 0 143 154" version="1.1" xmlns="http://www.w3.org/2000/svg" xmlns:xlink="http://www.w3.org/1999/xlink">
    <!-- Generator: Sketch 42 (36781) - http://www.bohemiancoding.com/sketch -->
    <title>logo</title>
    <desc>Created with Sketch.</desc>
    <defs></defs>
    <g id="Page-1" stroke="none" stroke-width="1" fill="none" fill-rule="evenodd">
        <g id="logo">
            <g id="cocoacasts-(RGB)-Copy-10">
                <path d="M0.994,75.919 C0.994,6.089 6.885,-24.03 86,23 C181.222,79.606 138.051,93.332 84.999,129.999 C12.713,179.965 0.994,145.752 0.994,75.919 Z" id="Fill-2" fill="#43535E"></path>
                <path d="M72.737,106.605 C63.256,113.119 54.904,116.149 48.655,116.115 C37.375,116.101 29.491,106.939 29.122,80.716 C29.122,79.734 29.135,78.731 29.161,77.708 C29.35,69.41 29.547,59.17 31.985,51.613 C34.696,43.994 37.942,39.878 46.504,39.679 C52.347,39.652 61.074,42.13 73.069,48.804 C91.193,58.845 97.867,68.151 97.736,75.911 C97.956,84.423 89.554,95.206 72.737,106.605 L72.737,106.605 Z M77.113,41.516 C64.412,34.491 54.601,31.371 46.504,31.344 C43.289,31.293 40.425,31.837 37.888,32.819 L32.468,24.69 C31.19,22.775 28.604,22.256 26.688,23.533 C24.773,24.808 24.257,27.398 25.532,29.31 L30.886,37.342 C27.564,40.564 25.293,44.748 24.044,49.085 C21.093,58.435 21.062,69.24 20.831,77.497 C20.802,78.588 20.788,79.662 20.788,80.716 C20.807,94.539 23.101,105.146 27.823,112.731 C32.485,120.35 40.141,124.547 48.655,124.45 C57.486,124.416 67.115,120.527 77.445,113.482 C94.773,101.516 105.85,89.713 106.07,75.911 C105.939,63.068 96,52.004 77.113,41.516 L77.113,41.516 Z" id="Fill-4" fill="#C9C2AD"></path>
                <path d="M70,105.999 C59.52,113.029 41.824,120.944 34,103.999 C32.578,100.919 34.026,101.864 37.261,106.21 C38.632,108.052 40.715,109.376 41.707,109.698 C50.655,112.607 62.465,106.123 66,95.999 C67.641,91.299 64.286,81.601 66,79 C67.899,76.118 74.479,74.637 78.615,72.737 C80.345,71.942 93.137,86.366 85.251,94.005 C80.484,98.621 74.836,102.756 70,105.999 L70,105.999 Z M59.411,108.207 C58.996,107.49 58.08,107.245 57.362,107.659 C56.645,108.072 56.398,108.99 56.812,109.708 C57.227,110.425 58.143,110.67 58.861,110.256 C59.578,109.841 59.825,108.925 59.411,108.207 L59.411,108.207 Z M66.822,103.041 C66.269,102.086 65.045,101.759 64.09,102.309 C63.132,102.862 62.805,104.086 63.358,105.041 C63.908,105.999 65.132,106.326 66.09,105.773 C67.045,105.223 67.372,103.999 66.822,103.041 L66.822,103.041 Z M69.668,84.026 C69.392,83.548 68.781,83.383 68.301,83.659 C67.823,83.936 67.658,84.547 67.934,85.027 C68.211,85.504 68.824,85.669 69.302,85.393 C69.779,85.116 69.944,84.503 69.668,84.026 L69.668,84.026 Z M73.935,87.027 C74.211,87.504 74.824,87.667 75.302,87.393 C75.779,87.116 75.944,86.503 75.668,86.026 C75.392,85.548 74.781,85.383 74.301,85.659 C73.823,85.936 73.658,86.547 73.935,87.027 L73.935,87.027 Z M70.436,100.913 C70.851,101.63 71.767,101.878 72.485,101.463 C73.202,101.049 73.45,100.13 73.035,99.412 C72.621,98.697 71.704,98.45 70.987,98.864 C70.269,99.279 70.022,100.195 70.436,100.913 L70.436,100.913 Z M70.902,92.842 C71.314,93.56 72.233,93.805 72.95,93.39 C73.668,92.976 73.913,92.059 73.498,91.342 C73.084,90.624 72.167,90.377 71.45,90.792 C70.732,91.206 70.487,92.125 70.902,92.842 L70.902,92.842 Z M75.77,78.988 C75.207,78.033 73.966,77.706 72.994,78.256 C72.022,78.809 71.69,80.033 72.25,80.988 C72.81,81.945 74.053,82.273 75.025,81.72 C75.998,81.17 76.33,79.945 75.77,78.988 L75.77,78.988 Z M78.48,93.579 C78.204,93.099 77.593,92.937 77.115,93.213 C76.637,93.487 76.473,94.101 76.749,94.578 C77.025,95.056 77.636,95.221 78.114,94.944 C78.594,94.668 78.756,94.057 78.48,93.579 L78.48,93.579 Z M79.561,88.646 C80.528,90.319 82.669,90.893 84.342,89.926 C86.017,88.959 86.589,86.818 85.624,85.146 C84.657,83.47 82.516,82.898 80.841,83.863 C79.168,84.83 78.594,86.971 79.561,88.646 L79.561,88.646 Z M82.686,77.182 C82.272,76.464 81.353,76.217 80.638,76.632 C79.92,77.046 79.673,77.965 80.087,78.68 C80.502,79.398 81.418,79.645 82.136,79.23 C82.853,78.816 83.101,77.899 82.686,77.182 L82.686,77.182 Z" id="Fill-6" fill="#C9C2AD"></path>
                <path d="M85.218,66.239 C84.806,65.526 85.051,64.617 85.761,64.205 C86.474,63.795 87.383,64.038 87.795,64.75 C88.207,65.461 87.962,66.372 87.25,66.782 C86.539,67.194 85.628,66.949 85.218,66.239 L85.218,66.239 Z M85.121,72.944 C84.643,73.221 84.03,73.056 83.754,72.578 C83.48,72.101 83.642,71.487 84.12,71.213 C84.6,70.937 85.211,71.099 85.487,71.579 C85.763,72.057 85.599,72.668 85.121,72.944 L85.121,72.944 Z M88.709,74.089 C89.667,73.536 90.888,73.863 91.441,74.821 C91.994,75.776 91.667,77 90.709,77.553 C89.754,78.105 88.53,77.776 87.977,76.821 C87.424,75.863 87.754,74.641 88.709,74.089 L88.709,74.089 Z M89.499,69.138 C89.984,68.862 90.605,69.027 90.883,69.504 C91.162,69.984 90.997,70.598 90.513,70.874 C90.028,71.153 89.407,70.988 89.128,70.508 C88.85,70.028 89.014,69.414 89.499,69.138 L89.499,69.138 Z M90.251,83.783 C89.538,84.193 88.629,83.95 88.217,83.238 C87.807,82.527 88.05,81.616 88.762,81.206 C89.473,80.794 90.384,81.039 90.796,81.749 C91.206,82.462 90.961,83.371 90.251,83.783 L90.251,83.783 Z M94.006,69 C87.58,57.277 68.88,47.638 62.999,45.999 C66.415,47.504 86.671,55.756 82.006,69.999 C81.563,71.351 79.616,72.376 77.205,73.339 C78.439,74.465 79.563,75.58 80.572,76.683 C80.597,76.667 80.618,76.646 80.643,76.631 C81.359,76.217 82.277,76.464 82.692,77.182 C83.028,77.764 82.923,78.473 82.49,78.942 C86.81,84.468 88.02,89.611 85.253,94.007 C93.141,86.368 98.617,77.412 94.006,69 L94.006,69 Z" id="Fill-7" fill="#C9C2AD"></path>
            </g>
        </g>
    </g>
</svg>